<svg height="512pt" viewBox="-76 0 512 512" width="512pt" xmlns="http://www.w3.org/2000/svg"><path d="m240.457031 483.804688h-119.765625l34.894532-274.761719h49.976562zm0 0" fill="#5a5a5a"/><path d="m205.5625 209.042969h-17.242188l34.894532 274.761719h17.242187zm0 0" fill="#464646"/><path d="m158.730469 184.175781-18.871094-25.429687c-2.097656-2.824219-2.855469-6.425782-2.078125-9.859375l32.410156-143.023438c.777344-3.429687 3.824219-5.863281 7.339844-5.863281h11.457031c4.050781 0 7.375 3.203125 7.523438 7.253906l7.007812 192.253906h-36.753906zm0 0" fill="#cdcdcd"/><path d="m196.511719 7.253906c-.148438-4.050781-3.472657-7.253906-7.523438-7.253906h-11.457031c-.664062 0-1.3125.0859375-1.929688.25 3.144532.820312 5.5 3.613281 5.621094 7.003906l7.007813 192.253906h15.289062zm0 0" fill="#bebebe"/><path d="m171.328125 141.765625c-4.144531 0-7.5-3.359375-7.5-7.5v-27.167969c0-4.144531 3.355469-7.5 7.5-7.5 4.140625 0 7.5 3.355469 7.5 7.5v27.167969c0 4.140625-3.359375 7.5-7.5 7.5zm0 0" fill="#5a5a5a"/><path d="m175.640625 240.648438-12.585937 29.054687c-1.398438 3.230469-4.136719 5.6875-7.5 6.730469l-140.066407 43.445312c-3.359375 1.042969-6.992187-.382812-8.75-3.425781l-5.730469-9.925781c-2.023437-3.507813-.9101558-7.988282 2.523438-10.140625l162.992188-102.195313 18.378906 31.832032zm0 0" fill="#cdcdcd"/><path d="m166.523438 194.191406-3.367188 2.113282 10.480469 18.152343-9.261719 14.628907-11.675781 26.953124c-1.976563 4.5625-5.847657 8.035157-10.597657 9.511719l-137.878906 42.761719c-.660156.207031-1.328125.3125-1.992187.332031l4.507812 7.808594c1.757813 3.042969 5.390625 4.46875 8.75 3.425781l140.066407-43.441406c3.363281-1.042969 6.101562-3.5 7.5-6.730469l12.585937-29.058593 9.261719-14.625zm0 0" fill="#bebebe"/><path d="m102.597656 275.78125c-2.59375 0-5.113281-1.347656-6.503906-3.753906-2.070312-3.585938-.839844-8.171875 2.746094-10.242188l26.078125-15.058594c3.585937-2.070312 8.175781-.839843 10.246093 2.746094 2.070313 3.585938.839844 8.171875-2.746093 10.246094l-26.078125 15.054688c-1.179688.683593-2.46875 1.007812-3.742188 1.007812zm0 0" fill="#5a5a5a"/><path d="m210.039062 203.773438 31.457032-3.628907c3.496094-.402343 6.996094.738281 9.578125 3.128907l107.65625 99.582031c2.582031 2.386719 3.164062 6.242187 1.40625 9.289062l-5.726563 9.921875c-2.027344 3.507813-6.464844 4.785156-10.042968 2.886719l-170.003907-90.054687 18.378907-31.832032zm0 0" fill="#cdcdcd"/><path d="m360.136719 312.144531c1.757812-3.046875 1.175781-6.902343-1.40625-9.289062l-107.65625-99.582031c-2.582031-2.390626-6.082031-3.53125-9.578125-3.128907l-31.457032 3.628907-17.296874-.707032-7.707032 13.347656 16.136719.660157 28.113281-3.242188c5.617188-.648437 11.242188 1.1875 15.394532 5.03125l105.183593 97.292969c2.417969 2.238281 3.085938 5.761719 1.714844 8.703125 1.140625-.640625 2.132813-1.578125 2.832031-2.792969zm0 0" fill="#bebebe"/><path d="m270.484375 260.722656c-1.269531 0-2.5625-.324218-3.742187-1.003906l-23.527344-13.585938c-3.585938-2.070312-4.816406-6.65625-2.746094-10.246093 2.070312-3.585938 6.660156-4.816407 10.246094-2.742188l23.527344 13.582031c3.585937 2.070313 4.816406 6.660157 2.746093 10.246094-1.390625 2.40625-3.910156 3.75-6.503906 3.75zm0 0" fill="#5a5a5a"/><path d="m209.800781 209.042969c0 17.5-14.1875 31.691406-31.691406 31.691406-17.5 0-31.691406-14.191406-31.691406-31.691406s14.191406-31.691407 31.691406-31.691407c17.503906 0 31.691406 14.191407 31.691406 31.691407zm0 0" fill="#40c1fa"/><path d="m178.109375 177.351562c-2.871094 0-5.652344.390626-8.296875 1.105469 13.476562 3.648438 23.394531 15.953125 23.394531 30.585938 0 14.632812-9.917969 26.9375-23.394531 30.585937 2.644531.714844 5.425781 1.105469 8.296875 1.105469 17.503906 0 31.691406-14.1875 31.691406-31.691406 0-17.503907-14.1875-31.691407-31.691406-31.691407zm0 0" fill="#07a9f0"/><path d="m261.082031 512h-161.019531c-2.878906 0-5.214844-2.335938-5.214844-5.214844v-17.765625c0-2.878906 2.335938-5.210937 5.214844-5.210937h161.019531c2.882813 0 5.214844 2.332031 5.214844 5.210937v17.765625c0 2.878906-2.332031 5.214844-5.214844 5.214844zm0 0" fill="#cdcdcd"/><path d="m247.949219 483.804688v28.195312h13.136719c2.878906 0 5.210937-2.335938 5.210937-5.214844v-17.765625c0-2.878906-2.332031-5.210937-5.210937-5.210937h-13.136719zm0 0" fill="#bebebe"/><g fill="#40c1fa"><path d="m180.574219 425.796875c-4.144531 0-7.5-3.359375-7.5-7.5v-105.398437c0-4.140626 3.355469-7.5 7.5-7.5 4.140625 0 7.5 3.359374 7.5 7.5v105.398437c0 4.140625-3.359375 7.5-7.5 7.5zm0 0"/><path d="m41.152344 232.867188c-3.648438 0-6.847656-2.667969-7.40625-6.382813-1.113282-7.359375-1.675782-14.882813-1.675782-22.359375 0-28.292969 7.988282-55.808594 23.101563-79.570312 14.703125-23.125 35.453125-41.71875 60.007813-53.78125 3.71875-1.828126 8.210937-.292969 10.039062 3.425781 1.824219 3.714843.292969 8.210937-3.425781 10.035156-22.078125 10.847656-40.738281 27.570313-53.964844 48.367187-13.578125 21.355469-20.757813 46.085938-20.757813 71.519532 0 6.730468.507813 13.5 1.507813 20.121094.617187 4.097656-2.199219 7.917968-6.296875 8.539062-.378906.058594-.757812.085938-1.128906.085938zm0 0"/><path d="m74.195312 218.863281c-3.914062 0-7.210937-3.035156-7.476562-6.996093-.175781-2.628907-.265625-5.234376-.265625-7.742188 0-39.042969 19.636719-74.960938 52.523437-96.085938 3.484376-2.234374 8.125-1.226562 10.363282 2.261719 2.238281 3.484375 1.230468 8.125-2.257813 10.359375-28.574219 18.351563-45.632812 49.554688-45.632812 83.460938 0 2.175781.078125 4.441406.234375 6.738281.277344 4.132813-2.847656 7.707031-6.980469 7.988281-.167969.011719-.339844.015625-.507813.015625zm0 0"/><path d="m321.238281 221.640625c-.179687 0-.355469-.003906-.535156-.019531-4.132813-.289063-7.246094-3.875-6.953125-8.007813 1.726562-24.539062-3.34375-49.078125-14.667969-70.964843-11.628906-22.480469-29.398437-41.121094-51.382812-53.914063-5.8125-3.382813-11.921875-6.347656-18.148438-8.8125-3.851562-1.523437-5.734375-5.882813-4.210937-9.734375 1.523437-3.851562 5.882812-5.738281 9.734375-4.210938 6.921875 2.738282 13.707031 6.035157 20.167969 9.792969 24.453124 14.226563 44.21875 34.96875 57.160156 59.984375 12.59375 24.339844 18.230468 51.625 16.308594 78.914063-.277344 3.953125-3.574219 6.972656-7.472657 6.972656zm0 0"/><path d="m287.089844 207.039062c-3.992188 0-7.3125-3.144531-7.488282-7.167968-1.492187-33.925782-19.878906-64.363282-49.191406-81.417969-1.871094-1.085937-3.871094-2.160156-5.941406-3.183594-3.710938-1.839843-5.226562-6.339843-3.390625-10.050781 1.839844-3.710938 6.339844-5.230469 10.050781-3.390625 2.371094 1.171875 4.664063 2.40625 6.824219 3.660156 33.746094 19.632813 54.917969 54.671875 56.636719 93.722657.179687 4.136718-3.027344 7.640624-7.164063 7.820312-.117187.007812-.226562.007812-.335937.007812zm0 0"/></g></svg>