<?xml version="1.0" encoding="utf-8"?>
<!-- Generator: Adobe Illustrator 15.1.0, SVG Export Plug-In . SVG Version: 6.00 Build 0)  -->
<!DOCTYPE svg PUBLIC "-//W3C//DTD SVG 1.1//EN" "http://www.w3.org/Graphics/SVG/1.1/DTD/svg11.dtd">
<svg version="1.1" id="Livello_1" xmlns="http://www.w3.org/2000/svg" xmlns:xlink="http://www.w3.org/1999/xlink" x="0px" y="0px"
	 width="595.28px" height="841.89px" viewBox="0 0 595.28 841.89" enable-background="new 0 0 595.28 841.89" xml:space="preserve">
<g>
	
		<radialGradient id="SVGID_1_" cx="1547.4854" cy="18118.9219" r="309.416" gradientTransform="matrix(0.8724 0 0 0.05 -1052.3514 -184.8169)" gradientUnits="userSpaceOnUse">
		<stop  offset="0" style="stop-color:#373636"/>
		<stop  offset="0.0742" style="stop-color:#3E3E3D"/>
		<stop  offset="0.1777" style="stop-color:#515150"/>
		<stop  offset="0.2987" style="stop-color:#6E6E6D"/>
		<stop  offset="0.4317" style="stop-color:#939393"/>
		<stop  offset="0.4581" style="stop-color:#9B9B9A"/>
		<stop  offset="0.5564" style="stop-color:#B9B8B8"/>
		<stop  offset="0.6658" style="stop-color:#D2D2D2"/>
		<stop  offset="0.7569" style="stop-color:#E2E2E2"/>
		<stop  offset="0.8177" style="stop-color:#E7E7E7"/>
		<stop  offset="1" style="stop-color:#FFFFFF"/>
	</radialGradient>
	<path fill="url(#SVGID_1_)" d="M567.671,721.131c0,8.527-120.904,15.463-270.037,15.463c-149.133,0-270.025-6.936-270.025-15.463
		s120.892-15.467,270.025-15.467C446.767,705.664,567.671,712.604,567.671,721.131z"/>
	<g>
		<g>
			<g>
				<linearGradient id="SVGID_2_" gradientUnits="userSpaceOnUse" x1="266.5029" y1="494.7383" x2="327.2598" y2="494.7383">
					<stop  offset="0.236" style="stop-color:#666666"/>
					<stop  offset="0.6404" style="stop-color:#B3B3B3"/>
					<stop  offset="0.7508" style="stop-color:#A4A4A4"/>
					<stop  offset="0.9551" style="stop-color:#808080"/>
				</linearGradient>
				<polygon fill="url(#SVGID_2_)" points="315.405,348.039 327.26,641.438 266.503,641.438 281.331,351.012 				"/>
				<g>
					<linearGradient id="SVGID_3_" gradientUnits="userSpaceOnUse" x1="332.3691" y1="347.144" x2="548.8584" y2="347.144">
						<stop  offset="0.0495" style="stop-color:#ADADAD"/>
						<stop  offset="0.9011" style="stop-color:#E5E5E5"/>
					</linearGradient>
					<path fill="url(#SVGID_3_)" d="M548.811,383.25l-2.097-25.085c-0.468-5.424-4.115-10.09-9.285-11.826l-146.983-49.429
						c-2.837-0.941-5.815-0.947-8.652-0.012L345.7,308.808c-4.465,1.462-7.857,5.134-8.971,9.717l-3.956,16.042
						c-1.818,7.313,2.665,14.751,10.008,16.54l189.128,46.568c0.338,0.089,0.67,0.172,1.007,0.231
						c3.95,0.651,8.071-0.468,11.156-3.098C547.419,391.961,549.178,387.626,548.811,383.25z"/>
					<linearGradient id="SVGID_4_" gradientUnits="userSpaceOnUse" x1="232.5903" y1="276.1938" x2="232.5903" y2="69.3931">
						<stop  offset="0.0495" style="stop-color:#ADADAD"/>
						<stop  offset="0.9011" style="stop-color:#E5E5E5"/>
					</linearGradient>
					<path fill="url(#SVGID_4_)" d="M180.241,72.228l25.013-2.753c5.431-0.592,10.695,2.084,13.389,6.822l76.71,134.785
						c1.469,2.594,2.043,5.525,1.664,8.486l-4.749,37.692c-0.586,4.684-3.547,8.717-7.811,10.712l-14.982,6.946
						c-6.864,3.186-15.006,0.201-18.18-6.662l-81.98-176.663c-0.142-0.326-0.272-0.64-0.391-0.971
						c-1.416-3.766-1.107-8.006,0.882-11.536C171.969,75.26,175.889,72.672,180.241,72.228z"/>
					<path fill="#FFFFFF" d="M183.137,98.687c1.854-3.257,5.211-5.483,8.936-5.862l21.455-2.369
						c2.718-0.302,5.371,0.379,7.574,1.783l-5.075-8.936c-2.103-3.689-6.218-5.779-10.458-5.317l-19.518,2.149
						c-3.393,0.355-6.449,2.369-8.142,5.347c-1.552,2.76-1.794,6.07-0.687,9.007c0.095,0.249,0.201,0.492,0.302,0.758l4.157,8.948
						C181.722,102.293,182.172,100.392,183.137,98.687z"/>
					<linearGradient id="SVGID_5_" gradientUnits="userSpaceOnUse" x1="254.1006" y1="336.0034" x2="130.0002" y2="516.6841">
						<stop  offset="0.0495" style="stop-color:#ADADAD"/>
						<stop  offset="0.9011" style="stop-color:#E5E5E5"/>
					</linearGradient>
					<path fill="url(#SVGID_5_)" d="M137.409,526.904l-14.905-20.316c-3.228-4.389-3.518-10.293-0.776-15l78.38-133.808
						c1.522-2.57,3.737-4.542,6.52-5.714l35.015-14.698c4.317-1.842,9.315-1.297,13.176,1.427l13.496,9.48
						c6.188,4.341,7.692,12.886,3.333,19.068l-112.016,159.33c-0.207,0.291-0.414,0.545-0.627,0.811
						c-2.564,3.109-6.39,4.975-10.44,5.01C144.166,532.531,139.979,530.439,137.409,526.904z"/>
				</g>
				<g>
					
						<linearGradient id="SVGID_6_" gradientUnits="userSpaceOnUse" x1="141.1899" y1="364.6787" x2="141.1899" y2="263.0918" gradientTransform="matrix(-1 0 0 1 434.5273 0)">
						<stop  offset="0" style="stop-color:#0D0D0D"/>
						<stop  offset="0.0658" style="stop-color:#1C1C1C"/>
						<stop  offset="0.1668" style="stop-color:#2D2D2D"/>
						<stop  offset="0.2418" style="stop-color:#333333"/>
						<stop  offset="0.8956" style="stop-color:#B2B2B2"/>
					</linearGradient>
					<path fill="url(#SVGID_6_)" d="M242.526,313.882c0,28.057,22.751,50.796,50.802,50.796c28.075,0,50.821-22.739,50.821-50.796
						c0-28.069-22.746-50.791-50.821-50.791C265.277,263.092,242.526,285.813,242.526,313.882z"/>
					
						<radialGradient id="SVGID_7_" cx="141.1963" cy="267.604" r="40.2965" gradientTransform="matrix(-1 0 0 1 434.5273 0)" gradientUnits="userSpaceOnUse">
						<stop  offset="0" style="stop-color:#EBEBEB"/>
						<stop  offset="0.6099" style="stop-color:#C2C2C2"/>
						<stop  offset="0.7282" style="stop-color:#BBBBBB"/>
						<stop  offset="0.8791" style="stop-color:#ABABAB"/>
					</radialGradient>
					<path fill="url(#SVGID_7_)" d="M293.328,271.773c-15.68,0-29.745,8.065-39.391,17.694
						c8.231-13.123,22.763-21.863,39.391-21.863c16.611,0,31.161,8.741,39.397,21.863
						C323.067,279.838,309.033,271.773,293.328,271.773z"/>
				</g>
			</g>
			<path fill="#FFFFFF" d="M160.273,509.885c-3.749,0.043-7.349-1.758-9.552-4.801l-12.773-17.393
				c-1.605-2.209-2.351-4.844-2.227-7.455l-5.205,8.875c-2.144,3.666-1.913,8.268,0.622,11.703l11.606,15.828
				c2.001,2.766,5.282,4.412,8.705,4.375c3.168-0.029,6.153-1.473,8.154-3.896c0.166-0.207,0.326-0.42,0.509-0.645l5.667-8.072
				C164.099,509.316,162.245,509.873,160.273,509.885z"/>
			<path fill="#FFFFFF" d="M520.546,386.998c2.937-2.345,4.583-6.022,4.388-9.765l-1.09-21.567
				c-0.153-2.712-1.231-5.223-2.973-7.171l9.635,3.583c3.985,1.475,6.703,5.211,6.923,9.469l0.989,19.607
				c0.195,3.411-1.315,6.763-3.992,8.895c-2.48,1.978-5.702,2.742-8.775,2.12c-0.267-0.06-0.527-0.124-0.8-0.178l-9.486-2.671
				C517.229,388.946,519.029,388.224,520.546,386.998z"/>
		</g>
		
			<linearGradient id="SVGID_8_" gradientUnits="userSpaceOnUse" x1="-358.2759" y1="217.0283" x2="-358.2759" y2="342.7412" gradientTransform="matrix(-1 0 0 -1 -56.6602 938.7637)">
			<stop  offset="0" style="stop-color:#5F9B2D"/>
			<stop  offset="0.6129" style="stop-color:#ADC90E"/>
		</linearGradient>
		<path fill="url(#SVGID_8_)" d="M401.916,596.023c-71.375,0-105.076,42.223-178.422,42.223c-52.011,0-80.145-20.922-118.245-33.086
			v85.154c0,17.328,14.093,31.422,31.426,31.422h329.9c17.321,0,31.408-14.094,31.408-31.422V614.67
			C469.814,604.994,434.811,596.023,401.916,596.023z"/>
	</g>
</g>
</svg>
